<?xml version="1.0" encoding="UTF-8"?>
<!DOCTYPE svg PUBLIC "-//W3C//DTD SVG 1.1//EN" "http://www.w3.org/Graphics/SVG/1.1/DTD/svg11.dtd">
<svg xmlns="http://www.w3.org/2000/svg" version="1.1" width="512px" height="512px" style="shape-rendering:geometricPrecision; text-rendering:geometricPrecision; image-rendering:optimizeQuality; fill-rule:evenodd; clip-rule:evenodd" xmlns:xlink="http://www.w3.org/1999/xlink">
<g><path style="opacity:0.966" fill="#000000" d="M 171.5,-0.5 C 175.833,-0.5 180.167,-0.5 184.5,-0.5C 194.25,2.62636 200.084,9.29303 202,19.5C 202.667,176.833 202.667,334.167 202,491.5C 200.261,501.395 194.761,508.061 185.5,511.5C 180.5,511.5 175.5,511.5 170.5,511.5C 160.782,507.935 155.282,500.935 154,490.5C 153.333,333.833 153.333,177.167 154,20.5C 155.636,9.83945 161.47,2.83945 171.5,-0.5 Z"/></g>
<g><path style="opacity:0.985" fill="#000000" d="M 252.5,85.5 C 265.691,85.173 274.525,91.173 279,103.5C 279.667,204.833 279.667,306.167 279,407.5C 272.527,423.448 261.027,428.615 244.5,423C 238.089,419.694 233.922,414.528 232,407.5C 231.333,306.167 231.333,204.833 232,103.5C 235.633,93.692 242.466,87.692 252.5,85.5 Z"/></g>
<g><path style="opacity:0.984" fill="#000000" d="M 407.5,85.5 C 421.235,85.1087 430.069,91.442 434,104.5C 434.667,205.167 434.667,305.833 434,406.5C 430.607,418.136 422.774,424.47 410.5,425.5C 398.451,424.903 390.618,418.903 387,407.5C 386.333,306.167 386.333,204.833 387,103.5C 390.325,93.4324 397.158,87.4324 407.5,85.5 Z"/></g>
<g><path style="opacity:0.982" fill="#000000" d="M 94.5,129.5 C 108.905,127.433 118.738,133.1 124,146.5C 124.667,219.167 124.667,291.833 124,364.5C 118.543,378.482 108.376,383.982 93.5,381C 84.4857,377.985 78.9857,371.818 77,362.5C 76.3333,290.833 76.3333,219.167 77,147.5C 79.6834,138.318 85.5167,132.318 94.5,129.5 Z"/></g>
<g><path style="opacity:0.964" fill="#000000" d="M 327.5,172.5 C 343.48,171.059 353.313,178.059 357,193.5C 357.667,234.5 357.667,275.5 357,316.5C 352.382,335.896 340.549,342.396 321.5,336C 314.248,332.017 310.081,325.851 309,317.5C 308.333,276.167 308.333,234.833 309,193.5C 311.128,182.876 317.295,175.876 327.5,172.5 Z"/></g>
<g><path style="opacity:0.968" fill="#000000" d="M -0.5,277.5 C -0.5,262.5 -0.5,247.5 -0.5,232.5C 6.65232,218.095 17.9857,213.262 33.5,218C 39.3921,220.892 43.5587,225.392 46,231.5C 47.0993,239.441 47.5993,247.441 47.5,255.5C 47.5993,263.559 47.0993,271.559 46,279.5C 38.7688,293.58 27.6021,298.08 12.5,293C 5.73024,289.742 1.3969,284.575 -0.5,277.5 Z"/></g>
<g><path style="opacity:0.968" fill="#000000" d="M 511.5,232.5 C 511.5,247.5 511.5,262.5 511.5,277.5C 505.169,293.127 493.836,298.294 477.5,293C 471.608,290.108 467.441,285.608 465,279.5C 463.901,271.559 463.401,263.559 463.5,255.5C 463.401,247.441 463.901,239.441 465,231.5C 471.228,218.47 481.395,213.637 495.5,217C 498.661,218.413 501.661,220.08 504.5,222C 507.229,225.308 509.562,228.808 511.5,232.5 Z"/></g>
</svg>
